<!-- <svg xmlns="http://www.w3.org/2000/svg" viewBox="0 0 841.9 595.3"><g fill="#61DAFB"><path d="M666.3 296.5c0-32.5-40.7-63.3-103.1-82.4 14.4-63.6 8-114.2-20.2-130.4-6.5-3.8-14.1-5.6-22.4-5.6v22.3c4.6 0 8.3.9 11.4 2.6 13.6 7.8 19.5 37.5 14.9 75.7-1.1 9.4-2.9 19.3-5.1 29.4-19.6-4.8-41-8.5-63.5-10.9-13.5-18.5-27.5-35.3-41.6-50 32.6-30.3 63.2-46.9 84-46.9V78c-27.5 0-63.5 19.6-99.9 53.6-36.4-33.8-72.4-53.2-99.9-53.2v22.3c20.7 0 51.4 16.5 84 46.6-14 14.7-28 31.4-41.3 49.9-22.6 2.4-44 6.1-63.6 11-2.3-10-4-19.7-5.2-29-4.7-38.2 1.1-67.9 14.6-75.8 3-1.8 6.9-2.6 11.5-2.6V78.5c-8.4 0-16 1.8-22.6 5.6-28.1 16.2-34.4 66.7-19.9 130.1-62.2 19.2-102.7 49.9-102.7 82.3 0 32.5 40.7 63.3 103.1 82.4-14.4 63.6-8 114.2 20.2 130.4 6.5 3.8 14.1 5.6 22.5 5.6 27.5 0 63.5-19.6 99.9-53.6 36.4 33.8 72.4 53.2 99.9 53.2 8.4 0 16-1.8 22.6-5.6 28.1-16.2 34.4-66.7 19.9-130.1 62-19.1 102.5-49.9 102.5-82.3zm-130.2-66.7c-3.7 12.9-8.3 26.2-13.5 39.5-4.1-8-8.4-16-13.1-24-4.6-8-9.5-15.8-14.4-23.4 14.2 2.1 27.9 4.7 41 7.9zm-45.8 106.5c-7.8 13.5-15.8 26.3-24.1 38.2-14.9 1.3-30 2-45.2 2-15.1 0-30.2-.7-45-1.9-8.3-11.9-16.4-24.6-24.2-38-7.6-13.1-14.5-26.4-20.8-39.8 6.2-13.4 13.2-26.8 20.7-39.9 7.8-13.5 15.8-26.3 24.1-38.2 14.9-1.3 30-2 45.2-2 15.1 0 30.2.7 45 1.9 8.3 11.9 16.4 24.6 24.2 38 7.6 13.1 14.5 26.4 20.8 39.8-6.3 13.4-13.2 26.8-20.7 39.9zm32.3-13c5.4 13.4 10 26.8 13.8 39.8-13.1 3.2-26.9 5.9-41.2 8 4.9-7.7 9.8-15.6 14.4-23.7 4.6-8 8.9-16.1 13-24.1zM421.2 430c-9.3-9.6-18.6-20.3-27.8-32 9 .4 18.2.7 27.5.7 9.4 0 18.7-.2 27.8-.7-9 11.7-18.3 22.4-27.5 32zm-74.4-58.9c-14.2-2.1-27.9-4.7-41-7.9 3.7-12.9 8.3-26.2 13.5-39.5 4.1 8 8.4 16 13.1 24 4.7 8 9.5 15.8 14.4 23.4zM420.7 163c9.3 9.6 18.6 20.3 27.8 32-9-.4-18.2-.7-27.5-.7-9.4 0-18.7.2-27.8.7 9-11.7 18.3-22.4 27.5-32zm-74 58.9c-4.9 7.7-9.8 15.6-14.4 23.7-4.6 8-8.9 16-13 24-5.4-13.4-10-26.8-13.8-39.8 13.1-3.1 26.9-5.8 41.2-7.9zm-90.5 125.2c-35.4-15.1-58.3-34.9-58.3-50.6 0-15.7 22.9-35.6 58.3-50.6 8.6-3.7 18-7 27.7-10.1 5.7 19.6 13.2 40 22.5 60.9-9.2 20.8-16.6 41.1-22.2 60.6-9.9-3.1-19.3-6.5-28-10.2zM310 490c-13.6-7.8-19.5-37.5-14.9-75.7 1.1-9.4 2.9-19.3 5.1-29.4 19.6 4.8 41 8.5 63.5 10.9 13.5 18.5 27.5 35.3 41.6 50-32.6 30.3-63.2 46.9-84 46.9-4.5-.1-8.3-1-11.3-2.7zm237.2-76.2c4.7 38.2-1.1 67.9-14.6 75.8-3 1.8-6.9 2.6-11.5 2.6-20.7 0-51.4-16.5-84-46.6 14-14.7 28-31.4 41.3-49.9 22.6-2.4 44-6.1 63.6-11 2.3 10.1 4.1 19.8 5.2 29.1zm38.5-66.7c-8.6 3.7-18 7-27.7 10.1-5.7-19.6-13.2-40-22.5-60.9 9.2-20.8 16.6-41.1 22.2-60.6 9.9 3.1 19.3 6.5 28.1 10.2 35.4 15.1 58.3 34.9 58.3 50.6-.1 15.7-23 35.6-58.4 50.6zM320.8 78.4z"/><circle cx="420.9" cy="296.5" r="45.7"/><path d="M520.5 78.1z"/></g></svg> -->

<svg xmlns="http://www.w3.org/2000/svg" viewBox="0 0 48 48"><defs><style>.cls-5{fill:#8491c1}.cls-7{fill:#4ac6b7}.cls-8{fill:#231f20}</style></defs><g id="Stock"><rect x="2" y="2" width="44" height="32" rx="2" ry="2" style="fill:#d3dbef"/><path d="M44 2h-3a2 2 0 0 1 2 2v28a2 2 0 0 1-2 2h3a2 2 0 0 0 2-2V4a2 2 0 0 0-2-2z" style="fill:#bfcae2"/><path d="M33 42H15a4 4 0 0 0-4 4h26a4 4 0 0 0-4-4z" style="fill:#505572"/><path d="M33 42h-3a4 4 0 0 1 4 4h3a4 4 0 0 0-4-4z" style="fill:#3d4360"/><path class="cls-5" d="M29 42H19l1-8h8l1 8z"/><path style="fill:#6c80ad" d="M28 34h-3l1 8h3l-1-8z"/><path class="cls-5" d="M10 15H7a1 1 0 0 1 0-2h3v-1H8a2.002 2.002 0 0 1-2-2V9a2.002 2.002 0 0 1 2-2h3a1 1 0 0 1 0 2H8v1h2a2.002 2.002 0 0 1 2 2v1a2.002 2.002 0 0 1-2 2z"/><path class="cls-5" d="M9 9a1 1 0 0 1-1-1V7a1 1 0 0 1 2 0v1a1 1 0 0 1-1 1zM9 16a1 1 0 0 1-1-1v-1a1 1 0 0 1 2 0v1a1 1 0 0 1-1 1zM41 30H7a1 1 0 0 1 0-2h34a1 1 0 0 1 0 2z"/><path class="cls-7" d="M41 13a1 1 0 0 1-1-1V8h-4a1 1 0 0 1 0-2h5a1 1 0 0 1 1 1v5a1 1 0 0 1-1 1z"/><path class="cls-7" d="M7.001 25a1 1 0 0 1-.582-1.814l7-5a1.003 1.003 0 0 1 .953-.115l4.43 1.773 7.54-6.596a1.005 1.005 0 0 1 1.03-.177l4.387 1.756 8.534-8.534a1 1 0 0 1 1.414 1.414l-9 9a1 1 0 0 1-1.079.222l-4.43-1.773-7.54 6.596a1 1 0 0 1-1.03.177l-4.492-1.798-6.555 4.683a.996.996 0 0 1-.58.186z"/><path class="cls-8" d="M44 1H4a3.003 3.003 0 0 0-3 3v28a3.003 3.003 0 0 0 3 3h14.867l-.75 6H15a5.006 5.006 0 0 0-5 5 1 1 0 0 0 1 1h26a1 1 0 0 0 1-1 5.006 5.006 0 0 0-5-5h-3.117l-.75-6H44a3.003 3.003 0 0 0 3-3V4a3.003 3.003 0 0 0-3-3zm-8.171 44H12.17A3.005 3.005 0 0 1 15 43h18a3.005 3.005 0 0 1 2.829 2zm-7.962-4h-7.734l.75-6h6.234zM45 32a1.001 1.001 0 0 1-1 1H4a1.001 1.001 0 0 1-1-1V4a1.001 1.001 0 0 1 1-1h40a1.001 1.001 0 0 1 1 1z"/><path class="cls-8" d="M7 13a1 1 0 0 0 0 2h1a1 1 0 0 0 2 0 2.002 2.002 0 0 0 2-2v-1a2.002 2.002 0 0 0-2-2H8V9h3a1 1 0 0 0 0-2h-1a1 1 0 0 0-2 0 2.002 2.002 0 0 0-2 2v1a2.002 2.002 0 0 0 2 2h2v1zM41 28H7a1 1 0 0 0 0 2h34a1 1 0 0 0 0-2zM41.382 6.077A1 1 0 0 0 41 6h-5a1 1 0 0 0 0 2h2.586l-6.827 6.827-4.387-1.756a1.005 1.005 0 0 0-1.03.177l-7.54 6.596-4.43-1.773a1.003 1.003 0 0 0-.953.115l-7 5a1 1 0 0 0 1.162 1.628l6.555-4.683 4.493 1.798a1 1 0 0 0 1.03-.176l7.538-6.597 4.431 1.773a1 1 0 0 0 1.079-.222L40 9.414V12a1 1 0 0 0 2 0V7a1.004 1.004 0 0 0-.618-.923z"/></g></svg>